<svg width="202" height="72" viewBox="0 0 202 72" fill="none" xmlns="http://www.w3.org/2000/svg">
<rect y="3.78809" width="64" height="64" fill="#BE3144"/>
<g clip-path="url(#clip0_204_208)">
<path fill-rule="evenodd" clip-rule="evenodd" d="M26.4966 54.6123H26.3516H14.5266C13.8578 54.6085 13.2176 54.3399 12.7455 53.8652C12.5087 53.6327 12.3208 53.3549 12.1927 53.0484C12.0647 52.7419 11.9992 52.4128 12 52.0806V12.3198C11.9992 11.9876 12.0647 11.6585 12.1927 11.352C12.3208 11.0455 12.5087 10.7678 12.7455 10.5352C12.9777 10.2979 13.2548 10.1095 13.5607 9.98123C13.8666 9.85292 14.195 9.78726 14.5266 9.78809H45.3712C46.0385 9.79303 46.677 10.0615 47.1481 10.5352C47.3856 10.7674 47.5743 11.045 47.7031 11.3515C47.8318 11.658 47.898 11.9873 47.8977 12.3198V36.251L46.1002 34.1094C45.9987 33.9835 45.8849 33.8681 45.7605 33.7649V27.3193H14.1704V52.1594C14.17 52.2062 14.1795 52.2524 14.198 52.2953C14.2166 52.3382 14.2438 52.3767 14.278 52.4085C14.3094 52.4429 14.3479 52.47 14.3908 52.4879C14.4338 52.5058 14.4801 52.5141 14.5266 52.5122L25.5895 52.479C25.5657 53.1161 25.7799 53.7391 26.1901 54.2263L26.4966 54.6123ZM50.8965 47.8057L35.0413 60.7881L28.1534 52.5745L29.0936 51.5452L34.1508 57.5176L34.2129 57.5964C34.3277 57.7306 34.4677 57.8407 34.6249 57.9206C34.7821 58.0005 34.9535 58.0486 35.1293 58.0621C35.3051 58.0756 35.4818 58.0542 35.6494 57.9992C35.8169 57.9443 35.972 57.8568 36.1058 57.7417L36.6235 57.2935L39.0714 55.1519L49.8403 46.5523L50.8799 47.7974L50.8965 47.8057ZM50.9876 43.9458L35.12 56.9365L28.2403 48.7188L44.1079 35.7322L51 43.9417L50.9876 43.9458ZM41.747 45.9546C41.8538 46.4259 41.8186 46.9184 41.6457 47.3696C41.4729 47.8209 41.1702 48.2105 40.7761 48.4891C40.3819 48.7677 39.9141 48.9228 39.4319 48.9347C38.9498 48.9466 38.4749 48.8147 38.0676 48.5559C37.6603 48.297 37.3389 47.9227 37.1441 47.4806C36.9493 47.0384 36.8899 46.5482 36.9735 46.0722C37.057 45.5962 37.2798 45.1558 37.6134 44.8068C37.9471 44.4578 38.3767 44.2159 38.8477 44.1118C39.4759 43.973 40.1333 44.0889 40.6765 44.4342C41.2198 44.7794 41.6046 45.326 41.747 45.9546ZM47.3137 44.917L36.7312 53.4461C36.4589 53.1265 36.0719 52.9272 35.6541 52.8915C35.2362 52.8558 34.8211 52.9864 34.4987 53.2551L31.7734 50.0095C31.932 49.8758 32.0627 49.712 32.1581 49.5276C32.2536 49.3431 32.3118 49.1417 32.3295 48.9347C32.3472 48.7277 32.324 48.5193 32.2613 48.3213C32.1985 48.1233 32.0975 47.9396 31.9639 47.7808L42.5506 39.2559C42.8215 39.5761 43.2079 39.776 43.6254 39.8118C44.0429 39.8475 44.4576 39.7163 44.7789 39.4468L47.5084 42.6924C47.1869 42.9634 46.9859 43.3512 46.9494 43.7706C46.9129 44.19 47.0439 44.6067 47.3137 44.9295V44.917ZM41.2459 30.8721V32.4119C41.247 32.4276 41.2449 32.4435 41.2395 32.4583C41.2342 32.4732 41.2258 32.4867 41.2148 32.4981C41.2038 32.5095 41.1906 32.5184 41.176 32.5243C41.1614 32.5302 41.1456 32.5329 41.1299 32.5322H32.2953C32.2795 32.5329 32.2638 32.5302 32.2492 32.5243C32.2345 32.5184 32.2213 32.5095 32.2103 32.4981C32.1994 32.4867 32.191 32.4732 32.1856 32.4583C32.1803 32.4435 32.1781 32.4276 32.1793 32.4119V30.8721C32.1781 30.8563 32.1803 30.8405 32.1856 30.8256C32.191 30.8108 32.1994 30.7972 32.2103 30.7859C32.2213 30.7745 32.2345 30.7656 32.2492 30.7597C32.2638 30.7538 32.2795 30.7511 32.2953 30.7517H41.1299C41.1456 30.7511 41.1614 30.7538 41.176 30.7597C41.1906 30.7656 41.2038 30.7745 41.2148 30.7859C41.2258 30.7972 41.2342 30.8108 41.2395 30.8256C41.2449 30.8405 41.247 30.8563 41.2459 30.8721ZM37.9324 34.8108V36.3506C37.933 36.3664 37.9303 36.3821 37.9244 36.3968C37.9185 36.4114 37.9096 36.4247 37.8983 36.4357C37.887 36.4466 37.8734 36.4551 37.8586 36.4605C37.8438 36.4658 37.828 36.468 37.8122 36.4668H32.316C32.3002 36.468 32.2844 36.4658 32.2696 36.4605C32.2548 36.4551 32.2413 36.4466 32.2299 36.4357C32.2186 36.4247 32.2097 36.4114 32.2038 36.3968C32.1979 36.3821 32.1952 36.3664 32.1958 36.3506V34.8108C32.1952 34.795 32.1979 34.7793 32.2038 34.7646C32.2097 34.7499 32.2186 34.7367 32.2299 34.7257C32.2413 34.7147 32.2548 34.7063 32.2696 34.7009C32.2844 34.6956 32.3002 34.6934 32.316 34.6946H37.8247C37.8552 34.6964 37.8841 34.7092 37.9062 34.7305C37.9282 34.7518 37.9419 34.7803 37.9448 34.8108H37.9324ZM23.6263 15.719H25.896C25.9154 15.7178 25.9348 15.7207 25.9529 15.7276C25.9711 15.7345 25.9875 15.7451 26.0012 15.7588C26.0149 15.7726 26.0256 15.7891 26.0324 15.8073C26.0393 15.8254 26.0422 15.8449 26.041 15.8643V23.8081C26.0416 23.8272 26.0383 23.8461 26.0311 23.8638C26.024 23.8815 26.0133 23.8975 25.9996 23.9108C25.986 23.924 25.9697 23.9343 25.9519 23.941C25.934 23.9476 25.915 23.9504 25.896 23.9492H23.6387C23.6199 23.9504 23.601 23.9476 23.5834 23.941C23.5658 23.9343 23.5498 23.924 23.5364 23.9106C23.5231 23.8973 23.5128 23.8812 23.5061 23.8635C23.4995 23.8459 23.4967 23.827 23.4979 23.8081V15.8643C23.496 15.8451 23.4984 15.8257 23.5047 15.8076C23.5111 15.7894 23.5213 15.7728 23.5347 15.759C23.5481 15.7452 23.5644 15.7344 23.5823 15.7275C23.6003 15.7206 23.6195 15.7177 23.6387 15.719H23.6263ZM28.7995 18.7405H31.0693C31.0884 18.7386 31.1077 18.741 31.1258 18.7474C31.144 18.7537 31.1605 18.764 31.1743 18.7774C31.1881 18.7908 31.1988 18.8071 31.2057 18.8251C31.2126 18.8431 31.2155 18.8624 31.2142 18.8816V23.7791C31.2148 23.7981 31.2115 23.8171 31.2043 23.8348C31.1972 23.8524 31.1865 23.8684 31.1728 23.8817C31.1592 23.895 31.1429 23.9053 31.1251 23.9119C31.1073 23.9185 31.0882 23.9213 31.0693 23.9202H28.8119C28.7933 23.9208 28.7747 23.9175 28.7574 23.9106C28.74 23.9037 28.7243 23.8933 28.7111 23.8801C28.6979 23.8669 28.6875 23.8511 28.6806 23.8337C28.6738 23.8164 28.6705 23.7977 28.6711 23.7791V18.8816C28.6731 18.8448 28.6886 18.8101 28.7146 18.784C28.7405 18.758 28.7752 18.7425 28.8119 18.7405H28.7995ZM39.1542 18.7405H41.424C41.4428 18.7393 41.4616 18.7421 41.4793 18.7487C41.4969 18.7554 41.5129 18.7658 41.5262 18.7791C41.5396 18.7925 41.5499 18.8085 41.5566 18.8262C41.5632 18.8439 41.566 18.8628 41.5648 18.8816V23.7791C41.5654 23.7977 41.5621 23.8164 41.5552 23.8337C41.5484 23.8511 41.538 23.8669 41.5248 23.8801C41.5116 23.8933 41.4959 23.9037 41.4785 23.9106C41.4612 23.9175 41.4426 23.9208 41.424 23.9202H39.1666C39.1476 23.9213 39.1286 23.9185 39.1108 23.9119C39.093 23.9053 39.0767 23.895 39.063 23.8817C39.0494 23.8684 39.0387 23.8524 39.0315 23.8348C39.0244 23.8171 39.0211 23.7981 39.0217 23.7791V18.8816C39.0246 18.8445 39.041 18.8097 39.0677 18.7837C39.0943 18.7577 39.1295 18.7424 39.1666 18.7405H39.1542ZM33.9769 15.719H36.2466C36.266 15.7178 36.2854 15.7207 36.3035 15.7276C36.3216 15.7345 36.3381 15.7451 36.3518 15.7588C36.3655 15.7726 36.3762 15.7891 36.383 15.8073C36.3899 15.8254 36.3928 15.8449 36.3916 15.8643V23.8081C36.3922 23.8272 36.3888 23.8461 36.3817 23.8638C36.3746 23.8815 36.3638 23.8975 36.3502 23.9108C36.3366 23.924 36.3203 23.9343 36.3025 23.941C36.2846 23.9476 36.2656 23.9504 36.2466 23.9492H33.9893C33.9703 23.9504 33.9513 23.9476 33.9334 23.941C33.9156 23.9343 33.8993 23.924 33.8857 23.9108C33.872 23.8975 33.8613 23.8815 33.8542 23.8638C33.8471 23.8461 33.8437 23.8272 33.8443 23.8081V15.8643C33.8431 15.8449 33.846 15.8254 33.8529 15.8073C33.8597 15.7891 33.8704 15.7726 33.8841 15.7588C33.8978 15.7451 33.9143 15.7345 33.9324 15.7276C33.9505 15.7207 33.9699 15.7178 33.9893 15.719H33.9769ZM18.4696 16.8106H20.7352C20.7546 16.8093 20.774 16.8123 20.7921 16.8191C20.8103 16.826 20.8267 16.8367 20.8404 16.8504C20.8542 16.8641 20.8648 16.8806 20.8717 16.8988C20.8785 16.917 20.8814 16.9364 20.8802 16.9558V23.8081C20.8808 23.8272 20.8775 23.8461 20.8703 23.8638C20.8632 23.8815 20.8525 23.8975 20.8388 23.9108C20.8252 23.924 20.8089 23.9343 20.7911 23.941C20.7733 23.9476 20.7542 23.9504 20.7352 23.9492H18.4696C18.4506 23.9504 18.4316 23.9476 18.4138 23.941C18.3959 23.9343 18.3797 23.924 18.366 23.9108C18.3524 23.8975 18.3417 23.8815 18.3345 23.8638C18.3274 23.8461 18.3241 23.8272 18.3247 23.8081V16.9558C18.2957 16.8687 18.3827 16.8106 18.4696 16.8106ZM23.7215 37.2886L28.5386 37.3757C28.5404 38.2211 28.3347 39.0539 27.9396 39.8009C27.5445 40.5478 26.9721 41.1859 26.2729 41.6589L23.7215 37.2886ZM23.4565 35.811L23.3985 30.1914V29.822L23.7712 29.8511C24.2209 29.8826 24.6663 29.959 25.1008 30.0794C25.5221 30.1975 25.9302 30.3588 26.3185 30.5608C27.3083 31.0846 28.1449 31.8575 28.7462 32.8035C29.3476 33.7495 29.6928 34.8361 29.748 35.9563L29.777 36.3257H29.3959L23.8127 36.1555H23.5145L23.4565 35.8152V35.811ZM24.1399 35.4707L29.0397 35.6118C28.9355 34.6742 28.605 33.7761 28.0767 32.9951C27.5485 32.2141 26.8384 31.5738 26.0079 31.1294C25.4925 30.8685 24.9432 30.6813 24.376 30.5733C24.2766 30.5733 24.1813 30.54 24.0819 30.5317L24.1399 35.4707ZM22.1062 36.7864L24.8399 41.5552C24.0026 42.0364 23.0548 42.291 22.0896 42.294C20.6622 42.2766 19.2974 41.7039 18.2836 40.6968C17.2698 39.6896 16.6865 38.327 16.6569 36.8968C16.6274 35.4667 17.1538 34.081 18.1251 33.0326C19.0964 31.9843 20.4363 31.3554 21.8618 31.2788L22.0896 36.7864H22.1062ZM45.7605 25.4973V12.3198C45.7624 12.2733 45.7541 12.2269 45.7363 12.1838C45.7184 12.1408 45.6913 12.1022 45.657 12.0708C45.6253 12.0365 45.5869 12.0092 45.5441 11.9906C45.5013 11.972 45.4551 11.9626 45.4085 11.9629H14.5266C14.4798 11.9618 14.4334 11.9709 14.3905 11.9895C14.3476 12.0081 14.3092 12.0359 14.278 12.0708C14.2401 12.0994 14.2101 12.1374 14.1913 12.181C14.1724 12.2247 14.1652 12.2725 14.1704 12.3198V25.4973H45.7605Z" fill="white"/>
</g>
<path fill-rule="evenodd" clip-rule="evenodd" d="M82.792 0L76 16.872H79.408L80.6122 13.728H87.5561L88.744 16.872H92.224L85.456 0H82.792ZM86.5224 10.992L84.1079 4.60122L81.6601 10.992H86.5224ZM95.7154 16.32C96.6594 16.848 97.7234 17.112 98.9074 17.112C99.8194 17.112 100.659 16.944 101.427 16.608C102.195 16.272 102.875 15.784 103.467 15.144L101.427 13.104C101.123 13.456 100.755 13.728 100.323 13.92C99.9074 14.096 99.4354 14.184 98.9074 14.184C98.3314 14.184 97.8114 14.056 97.3474 13.8C96.8994 13.528 96.5394 13.16 96.2674 12.696C96.0114 12.216 95.8834 11.672 95.8834 11.064C95.8834 10.44 96.0114 9.904 96.2674 9.456C96.5394 8.992 96.8994 8.632 97.3474 8.376C97.8114 8.104 98.3314 7.968 98.9074 7.968C99.4194 7.968 99.8834 8.056 100.299 8.232C100.731 8.408 101.099 8.664 101.403 9L103.419 6.96C102.859 6.336 102.195 5.856 101.427 5.52C100.659 5.184 99.8194 5.016 98.9074 5.016C97.7394 5.016 96.6754 5.288 95.7154 5.832C94.7714 6.36 94.0274 7.08 93.4834 7.992C92.9394 8.904 92.6674 9.936 92.6674 11.088C92.6674 12.224 92.9394 13.248 93.4834 14.16C94.0274 15.072 94.7714 15.792 95.7154 16.32ZM107.27 16.32C108.214 16.848 109.278 17.112 110.462 17.112C111.374 17.112 112.214 16.944 112.982 16.608C113.75 16.272 114.43 15.784 115.022 15.144L112.982 13.104C112.678 13.456 112.31 13.728 111.878 13.92C111.462 14.096 110.99 14.184 110.462 14.184C109.886 14.184 109.366 14.056 108.902 13.8C108.454 13.528 108.094 13.16 107.822 12.696C107.566 12.216 107.438 11.672 107.438 11.064C107.438 10.44 107.566 9.904 107.822 9.456C108.094 8.992 108.454 8.632 108.902 8.376C109.366 8.104 109.886 7.968 110.462 7.968C110.974 7.968 111.438 8.056 111.854 8.232C112.286 8.408 112.654 8.664 112.958 9L114.974 6.96C114.414 6.336 113.75 5.856 112.982 5.52C112.214 5.184 111.374 5.016 110.462 5.016C109.294 5.016 108.23 5.288 107.27 5.832C106.326 6.36 105.582 7.08 105.038 7.992C104.494 8.904 104.222 9.936 104.222 11.088C104.222 12.224 104.494 13.248 105.038 14.16C105.582 15.072 106.326 15.792 107.27 16.32ZM118.825 16.32C119.769 16.848 120.825 17.112 121.993 17.112C123.161 17.112 124.209 16.848 125.137 16.32C126.081 15.776 126.825 15.048 127.369 14.136C127.913 13.208 128.185 12.176 128.185 11.04C128.185 9.904 127.913 8.888 127.369 7.992C126.825 7.08 126.081 6.36 125.137 5.832C124.209 5.288 123.153 5.016 121.969 5.016C120.817 5.016 119.769 5.288 118.825 5.832C117.881 6.36 117.137 7.08 116.593 7.992C116.049 8.888 115.777 9.904 115.777 11.04C115.777 12.176 116.049 13.208 116.593 14.136C117.153 15.048 117.897 15.776 118.825 16.32ZM123.529 13.8C123.081 14.056 122.561 14.184 121.969 14.184C121.393 14.184 120.881 14.056 120.433 13.8C119.985 13.528 119.633 13.16 119.377 12.696C119.121 12.216 118.993 11.672 118.993 11.064C118.993 10.456 119.121 9.92 119.377 9.456C119.633 8.992 119.985 8.632 120.433 8.376C120.881 8.104 121.393 7.968 121.969 7.968C122.561 7.968 123.081 8.104 123.529 8.376C123.977 8.632 124.329 8.992 124.585 9.456C124.841 9.92 124.969 10.456 124.969 11.064C124.969 11.672 124.841 12.216 124.585 12.696C124.345 13.16 123.993 13.528 123.529 13.8ZM132.417 16.464C133.217 16.896 134.129 17.112 135.153 17.112C136.177 17.112 137.081 16.904 137.865 16.488C138.665 16.056 139.281 15.456 139.713 14.688C140.161 13.92 140.385 13.024 140.385 12V5.28H137.241V11.928C137.241 12.648 137.057 13.208 136.689 13.608C136.321 14.008 135.809 14.208 135.153 14.208C134.721 14.208 134.345 14.12 134.025 13.944C133.705 13.768 133.465 13.512 133.305 13.176C133.145 12.824 133.065 12.408 133.065 11.928V5.28H129.897V12C129.897 13.008 130.121 13.896 130.569 14.664C131.017 15.432 131.633 16.032 132.417 16.464ZM150.689 10.224V16.872H153.833V9.528C153.833 8.744 153.641 8.016 153.257 7.344C152.873 6.656 152.345 6.104 151.673 5.688C151.001 5.256 150.241 5.04 149.393 5.04C148.513 5.04 147.721 5.232 147.017 5.616C146.647 5.82226 146.319 6.07237 146.033 6.36633V5.28H142.889V16.872H146.033V10.224C146.033 9.76 146.129 9.352 146.321 9C146.529 8.648 146.809 8.376 147.161 8.184C147.513 7.992 147.913 7.896 148.361 7.896C149.049 7.896 149.609 8.112 150.041 8.544C150.473 8.976 150.689 9.536 150.689 10.224ZM157.929 8.04V16.872H161.072V8.04H163.785V5.28H161.072V0.456001H157.929V5.28H155.217V8.04H157.929ZM167.263 16.32C168.111 16.848 169.063 17.112 170.119 17.112C170.951 17.112 171.695 16.944 172.351 16.608C172.787 16.374 173.163 16.087 173.479 15.7469V16.872H176.599V5.28H173.479V6.39443C173.163 6.05085 172.787 5.76737 172.351 5.544C171.695 5.208 170.951 5.04 170.119 5.04C169.063 5.04 168.111 5.304 167.263 5.832C166.415 6.36 165.751 7.08 165.271 7.992C164.791 8.904 164.551 9.936 164.551 11.088C164.551 12.224 164.791 13.248 165.271 14.16C165.751 15.072 166.415 15.792 167.263 16.32ZM172.831 13.344C172.287 13.92 171.575 14.208 170.695 14.208C170.119 14.208 169.607 14.08 169.159 13.824C168.727 13.552 168.383 13.184 168.127 12.72C167.887 12.24 167.767 11.688 167.767 11.064C167.767 10.456 167.887 9.92 168.127 9.456C168.383 8.976 168.727 8.608 169.159 8.352C169.607 8.08 170.119 7.944 170.695 7.944C171.287 7.944 171.799 8.08 172.231 8.352C172.679 8.608 173.023 8.976 173.263 9.456C173.519 9.92 173.647 10.456 173.647 11.064C173.647 11.992 173.375 12.752 172.831 13.344ZM187.181 10.224V16.872H190.325V9.528C190.325 8.744 190.133 8.016 189.749 7.344C189.365 6.656 188.837 6.104 188.165 5.688C187.493 5.256 186.733 5.04 185.885 5.04C185.005 5.04 184.213 5.232 183.509 5.616C183.139 5.82226 182.811 6.07237 182.525 6.36633V5.28H179.381V16.872H182.525V10.224C182.525 9.76 182.621 9.352 182.813 9C183.021 8.648 183.301 8.376 183.653 8.184C184.005 7.992 184.405 7.896 184.853 7.896C185.541 7.896 186.101 8.112 186.533 8.544C186.965 8.976 187.181 9.536 187.181 10.224ZM194.421 8.04V16.872H197.565V8.04H200.277V5.28H197.565V0.456001H194.421V5.28H191.709V8.04H194.421ZM86.832 54.168V70.872H78.128V25.88H84.528H86.832H95.856C98.7147 25.88 101.275 26.456 103.536 27.608C105.84 28.76 107.653 30.4027 108.976 32.536C110.299 34.6267 110.96 37.1227 110.96 40.024C110.96 42.9253 110.299 45.4427 108.976 47.576C107.653 49.6667 105.84 51.288 103.536 52.44C101.275 53.592 98.7147 54.168 95.856 54.168H86.832ZM86.832 47.064H94.96C96.3253 47.064 97.5627 46.7867 98.672 46.232C99.7813 45.6773 100.656 44.888 101.296 43.864C101.936 42.7973 102.256 41.5173 102.256 40.024C102.256 38.5733 101.936 37.3147 101.296 36.248C100.656 35.1813 99.7813 34.3707 98.672 33.816C97.5627 33.2613 96.3253 32.984 94.96 32.984H86.832V47.064ZM125.832 52.056V70.872H117.128V25.88H123.528H125.832H134.728C137.629 25.88 140.168 26.456 142.344 27.608C144.563 28.7173 146.269 30.2533 147.464 32.216C148.701 34.1787 149.32 36.44 149.32 39C149.32 41.6453 148.701 43.9493 147.464 45.912C146.269 47.832 144.563 49.3467 142.344 50.456C140.81 51.1935 139.103 51.676 137.222 51.9036L152.264 70.872H141.704L127.344 52.056H125.832ZM125.832 45.272H133.96C136.093 45.272 137.736 44.7387 138.888 43.672C140.083 42.5627 140.68 41.048 140.68 39.128C140.68 37.3787 140.083 35.928 138.888 34.776C137.736 33.5813 136.093 32.984 133.96 32.984H125.832V45.272ZM168.655 69.784C171.514 70.9787 174.586 71.576 177.872 71.576C181.157 71.576 184.186 70.9787 186.959 69.784C189.776 68.5893 192.229 66.9467 194.319 64.856C196.453 62.7227 198.117 60.248 199.312 57.432C200.506 54.616 201.104 51.5867 201.104 48.344C201.104 45.1013 200.506 42.072 199.312 39.256C198.117 36.44 196.453 33.9867 194.319 31.896C192.229 29.7627 189.776 28.12 186.959 26.968C184.144 25.7733 181.071 25.176 177.744 25.176C174.458 25.176 171.408 25.7733 168.592 26.968C165.776 28.12 163.301 29.7627 161.167 31.896C159.077 33.9867 157.434 36.44 156.239 39.256C155.087 42.0293 154.512 45.0373 154.512 48.28C154.512 51.5227 155.109 54.5733 156.304 57.432C157.498 60.248 159.141 62.7227 161.232 64.856C163.365 66.9467 165.84 68.5893 168.655 69.784ZM185.295 61.528C183.162 62.808 180.645 63.448 177.744 63.448C175.653 63.448 173.711 63.0853 171.92 62.36C170.17 61.6347 168.655 60.6107 167.375 59.288C166.138 57.9653 165.157 56.3653 164.431 54.488C163.749 52.6107 163.407 50.5413 163.407 48.28C163.407 45.2933 164.005 42.6693 165.2 40.408C166.437 38.1467 168.122 36.3973 170.256 35.16C172.431 33.88 174.928 33.24 177.744 33.24C179.919 33.24 181.882 33.6027 183.632 34.328C185.381 35.0533 186.896 36.0987 188.176 37.464C189.456 38.7867 190.437 40.3653 191.12 42.2C191.802 44.0347 192.144 46.0613 192.144 48.28C192.144 51.3093 191.525 53.9547 190.288 56.216C189.093 58.4773 187.429 60.248 185.295 61.528Z" fill="#BE3144"/>
<defs>
<clipPath id="clip0_204_208">
<rect width="39" height="51" fill="white" transform="translate(12 9.78809)"/>
</clipPath>
</defs>
</svg>
